<svg id="Layer_1" data-name="Layer 1" xmlns="http://www.w3.org/2000/svg" viewBox="0 0 260.71 112.3">
  <path d="M252.11,52.72H225.94a8.62,8.62,0,0,0-8.6,8.6V83.86a8.62,8.62,0,0,0,8.6,8.6h26.17a8.62,8.62,0,0,0,8.6-8.6V61.32a8.63,8.63,0,0,0-8.6-8.6ZM156,23.08h-3.22v-.56c.88,0,1.44-.17,1.05-.95-.59-1.17,2-1.11,2.36-.85.68.45.24,1.74-.19,2.36Zm-4.4.78h3.9c-.43.65-1.65,2.87-2.43,2.87a8,8,0,0,1-1.47-2.87Zm74.52,37.46H252V83.86H226.07V61.32Zm-53.14,0h36a8.62,8.62,0,0,0-8.6-8.6H172.7a8.62,8.62,0,0,0-8.6,8.6V83.86a8.62,8.62,0,0,0,8.6,8.6h27.66a8.62,8.62,0,0,0,8.6-8.6V69H179.71a6.65,6.65,0,0,0,6.64,6.64h14.4v8.23H172.92V61.32Zm-112.52,0h34.4a8.62,8.62,0,0,0-8.6-8.6H59.6a8.62,8.62,0,0,0-8.6,8.6v7a8.62,8.62,0,0,0,8.6,8.6H86.29v7H51a8.62,8.62,0,0,0,8.6,8.6H87.11a8.62,8.62,0,0,0,8.6-8.6v-7a8.62,8.62,0,0,0-8.6-8.6H60.41v-7Zm-49.52,0H43.36a8.62,8.62,0,0,0-8.6-8.6H8.6A8.62,8.62,0,0,0,0,61.32V83.86a8.62,8.62,0,0,0,8.6,8.6H34.77a8.62,8.62,0,0,0,8.6-8.6H10.89V61.32ZM164.23,19.17a2.17,2.17,0,0,1-.64.22c-1.23,1.74-.49,1.53-2.65,3a16,16,0,0,0,.77,5.8.2.2,0,0,1,0,.18.21.21,0,0,1-.14.1c-.52.11-1.28.31-1.71.39a11.47,11.47,0,0,1,0,3c-.37,1.93-4.95,6.14-6,6.36-1.52.3-3.21-1-5.86-2.2-.73-.32-3.18-1.93-4.46-2.36-1.06-.35-2.13,2.23-.81,2.93.62.32,1.6.76,1.91,1.56.92,2.38-.14,11.56-2,13.41-.9,0-1.65-.83-2.32-.62-1.19.65-.44,4.29,0,4.93,7.33,7.54,6.46,13.12,9.57,17.29,1.42,0,.49,1.5,1.56,3.27a6.54,6.54,0,0,1-.24,3v2.27l-.24.71v2c-.22,1-.46,2.27-.66,3.17-.43,1.91,1.24,3.39.24,5.21,0,1.12,0,.89-.66,1.8,0,1.73-.41,5.39,0,6.68a19.88,19.88,0,0,0,4.36,5.07c2,.88,4.87.69,3.93,3.79-5.76,1.77-9.44-1-12.52-1l-.14.53a13.28,13.28,0,0,1-4-.62,50.3,50.3,0,0,1,.85-5.26l.66-1c.24-.69-.24-5.78-.28-7.15-1.23-.9-1.47-3.65-1.47-5.16a18.35,18.35,0,0,1-.43-4.07,7.58,7.58,0,0,1-.19-2.65c.18-.61.87-.88,1-1.37V80.56c.32-1.79.22-2.62-.85-3.69-2.7,0-3.07.16-4.55-2.13-.46-.71-4.23-6.66-4.59-6.82-3.14-1.37-2.51-.84-3.88-3.27A3.2,3.2,0,0,0,126.1,66c-1.12,1.68-3.11,7.13-3.68,9-.32,1.07,0,2.24-.47,3.13-.34.64-1.46.84-1.71,1.28-1.1,2-.28,1.83-2.37,3.22a8.92,8.92,0,0,0-.66,1.8l-.47.66c-.35.76.37,2.13.24,2.61a33.67,33.67,0,0,1-1.33,3.65c-1,2.28-.83,5.3-1.8,6.7-.49.7-1.66,0-2.56.6-.05.49-1.47,3.74-1.75,4.64v5.16c.27.87,1,1.7.78,2.8s-4.31,1.15-6.53.84c-1.48-.21-1.93-1.31-1.9-2.57,0-1.49,3-11.18,2.86-11.82-2.29-2.57.61-5.23,1.47-7.63.42-1.17.16-2.8.62-3.88l2.42-4.41c1.47-1.39.81-1.46,1.61-2.7.69-1.08,1.53-1.81,1-3.46-1-3.32,1.14-8,1.28-11.51-.37-.39-1.65-.27-1.81-1.33-.32-2.16.82-6,1.52-6.34.31-.16.67,0,.95-.19,0-1.62-1.61-10.63-.39-11.08.75-.28,2.49-.43,2.82-.58,0-.38-.28-1.2-.6-1.25-.54-.07-1.64-.28-2.52-.48-2.69-.62-.2-11.24-.17-11.28.74-1,4.18.34,4.59-1.33,1.15-1.47-.89-7.11,3-14,1.32-2.35,3.86-4.71,6.82-3.71,1,.34.39,1.76,2.13.24a6.34,6.34,0,0,0-.62-2.37c-2.9-8.64,6.92-13.32,13.78-8.38a7,7,0,0,1,1.8.9c.38,2,2.32,5.44.38,7.72a7.25,7.25,0,0,0-2.37,1,6.75,6.75,0,0,0,.24,2c.13.42.38.59-.26.85-.08,0-.05.3,0,.4a8.07,8.07,0,0,0,4.38-.73h1.28V12.61h.61V11.35h.61v2.18H151v.69h23.68v1.23h1V11h.88v3.66h2V16.7h6.27v-.62h1v.27h3v1.74h-3v.27h-1V17.7h-6.27v.62h-2.76V17.9h-1.18v1.26H164.23Z" transform="translate(0 -0.04)" fill="#b9b9bf" fill-rule="evenodd"/>
</svg>
