<svg id="Layer_1" data-name="Layer 1" xmlns="http://www.w3.org/2000/svg" viewBox="0 0 32.11 31.82">
  <path d="M31.18,11.18l.92-.46V1.37l-1-.5-3-.19-.79.53V.37l-6-.37-.26,1.21-1.38.16L17.91,0H13.19L11.6,1.16h-3L8.35.79.35.58.25,2.25A12.83,12.83,0,0,1,.5,4.94a9.88,9.88,0,0,1-.5,3V9.57l.63,2.88-.29,1v.84l.75.62v.84l-.75.88v3.29l.66,1L.92,23.55.34,24.72v2.22l.25.42v.91l-.2.55V30l.75.58H5.39L6,30.32l.54.29.54-.25.55.21L9,30.66l1.5-.42.16.42,1.63.08.38-.42,1.21,1.5,1-.87.29.33,1-.08.8.62L18.34,31h5.17l.59-.54.71.33h4l-.37-.62h1l2.67.67V18.19H31.05l.88-.91V14.65l-1.29-2,.58-.58ZM23.83,5.63l2.22,1.25-.71,4.47L19.12,6.88ZM8.93,26.42H6.43L4.18,24.54l1.92-5.6L12.48,25Zm17.37-.34H22.79L3.63,6.22,6,5.22,28.43,20.36Z" fill="#b9b9bf"/>
</svg>
