<?xml version="1.0" encoding="utf-8"?>
<!-- Generator: Adobe Illustrator 25.2.1, SVG Export Plug-In . SVG Version: 6.00 Build 0)  -->
<svg version="1.1" id="Layer_1" xmlns="http://www.w3.org/2000/svg" xmlns:xlink="http://www.w3.org/1999/xlink" x="0px" y="0px"
	 viewBox="0 0 50 50" style="enable-background:new 0 0 50 50;" xml:space="preserve">
<style type="text/css">
	.st0{fill-rule:evenodd;clip-rule:evenodd;fill:#B9B9BF;}
</style>
<g>
	<path class="st0" d="M44,0H6C2.7,0,0,2.7,0,6v38c0,3.3,2.7,6,6,6h38c3.3,0,6-2.7,6-6V6C50,2.7,47.3,0,44,0z M43.5,37.6L28,36.8v4.3
		L17.8,43l0-5l-9.4,1.2l0.8-19.4l-0.7-9.1h9.3l0.1-3.2h16v3.2h9.6l-0.8,8L43.5,37.6z"/>
	<polygon class="st0" points="19.3,41.1 26.4,39.7 26.4,28 30.8,28 30.9,21.1 26.5,21.1 26.5,16 31.7,16 32.3,9 19.3,9 	"/>
</g>
</svg>
