<svg id="Layer_1" data-name="Layer 1" xmlns="http://www.w3.org/2000/svg" viewBox="0 0 40 40.08">
  <path d="M11.52,8.88a13.91,13.91,0,0,1,16.64-.23L32,4a19.87,19.87,0,0,0-24.45.34Z" transform="translate(0.05 0.04)" fill="#b9b9bf"/>
  <path d="M33.54,5.32,29.7,9.93a14,14,0,1,1-19.8.37l.1-.1L6,5.7a20,20,0,1,0,28.28.39c-.26-.26-.52-.52-.79-.77Z" transform="translate(0.05 0.04)" fill="#b9b9bf"/>
  <path d="M29,32l-8-8V11l3,8,9,9ZM11,32l8-8V11l-3,8L7,28Z" transform="translate(0.05 0.04)" fill="#b9b9bf"/>
</svg>
