<?xml version="1.0" encoding="utf-8"?>
<!-- Generator: Adobe Illustrator 25.2.1, SVG Export Plug-In . SVG Version: 6.00 Build 0)  -->
<svg version="1.1" id="Layer_1" xmlns="http://www.w3.org/2000/svg" xmlns:xlink="http://www.w3.org/1999/xlink" x="0px" y="0px"
	 viewBox="0 0 354 364" style="enable-background:new 0 0 354 364;" xml:space="preserve">
<style type="text/css">
	.st0{fill:none;}
	.st1{fill:#B9B9BF;}
</style>
<g>
	<path class="st0" d="M354,77v287H0V0h354v76c-42.9,0-85.9,0-128.8,0.1c-2.6,0-5.7,0.1-7.6,1.4c-9.5,6.3-16.1,15.5-23.4,25.3h6.5
		c32.3,0,64.6-0.1,96.9,0.1c2.7,0,5.7,1.4,8,2.9c3.7,2.4,6.9,5.6,10.6,8.7c5.9-6,11.2-11.6,16.8-17.1C339.9,90.5,347,83.8,354,77z
		 M1.5,259.8h5c47.2,0,94.3,0,141.5,0c3.5,0,7-0.3,10.4-0.9c17-3.3,28.2-22.5,21.6-38.3c-3-6.9-7-13.2-11.9-18.9
		c-24.7-28.9-49.8-57.4-74.8-85.9c-1.7-1.6-4-2.5-6.4-2.6c-18.7-0.2-37.3-0.1-56-0.1c-1.2,0-2.4,0.2-4.2,0.4l38.7,44.1
		c19.8,22.5,39.5,45.1,59.2,67.7c1.5,1.7,2,4.3,2.9,6.4c-2.2,0.5-4.3,1.5-6.5,1.6c-14.2,0.1-28.3-0.3-42.5,0.2
		C64,234,51,231.2,41,220.3L1.5,259.8z M329,246.2c-8.2,0-15.2,0.4-22.1-0.1c-26.1-1.9-47.2-13.1-61.5-35.4s-14.9-46.8-9-71.7
		c2-8.5,5-16.8,7.6-25.6c-17.2,0-34.1-0.1-51.1,0.2c-1.3,0-3.2,2.2-3.7,3.7c-2.4,8.1-4.9,16.2-6.4,24.5c-2.9,15.9-5.1,32.2-1.1,48.1
		c11.3,44.7,54.3,88.8,119.3,73C311.8,260.3,321.6,254.5,329,246.2z M311,19.4v-1c-20.1-4.7-40.3-9.5-60.5-14
		c-3.4-0.8-7.4-1.8-10.6-0.8c-13.4,3.8-26.4,8.5-39.5,12.6c-3.1,1-4.1,2.4-4.1,5.6c0.4,18.6,0.5,37.3,0.7,56
		c0.1,1.1,0.4,2.1,0.6,3.2c2.4-2.6,4.1-4.6,6-6.5c6.6-6.9,14.3-10.2,24.1-9.8c11.6,0.6,23.3,0.1,35,0.2c2.7,0,4.2-0.7,5-3.5
		c5.4-18.8,18-31,35.5-38.6C305.8,21.5,308.4,20.4,311,19.4L311,19.4z M198,362.5c1.2-0.3,2.3-0.7,3.5-1.2
		c21.9-12.4,41.4-28.5,57.8-47.7c5-5.8,7.5-11.8,6.6-19.4c-0.3-4.5-0.3-9,0-13.5c0.1-3.1-0.8-4.3-4.1-4.6
		c-13.3-1.5-26.3-4.7-37.6-12.2c-9.4-6.3-18-13.7-26.2-20.1L198,362.5z M48.1,18.4v1.2c1,0.4,2.1,0.8,3.2,1.2
		c19.8,7.5,34.4,19.9,40.2,41.1c0.3,1.2,2.7,2.7,4.1,2.7c20.7,0.2,41.3,0.1,62,0.2c3.3,0,4.3-1.2,4.3-4.4c-0.1-13,0-26,0.2-39
		c0-3.3-1.4-4.6-4.4-5.5c-12.8-4.1-25.6-8.4-38.4-12.6c-1.4-0.5-2.8-0.7-4.3-0.4C92.7,7.9,70.4,13.1,48.1,18.4z M159.4,363.2
		c0.4-0.6,0.8-1.1,1.1-1.8c0.1-29.3,0.2-58.6,0.3-87.9c0-3.3-1.9-3.3-4.3-3.2c-8,0.3-15.9,0.7-23.9,0.8c-11.3,0.1-22.6,0-34,0H93
		c0,9.8,0.2,19-0.1,28.1c-0.2,4,0.8,7.2,3.5,9.9c11.2,11.3,22,23.1,34,33.6C139.1,350.5,149.5,356.4,159.4,363.2z M180.9,76.5
		c-0.3-0.2-0.6-0.3-0.9-0.3c-44.3,0-88.6,0-132.9,0.1c-8.2,0-16.2,2.7-22.7,7.8c-3.8,2.8-6.3,7.1-6.7,11.8c-0.6,5.3,0.8,6.9,6.1,6.9
		c30.3,0,60.6,0.5,90.9-0.2c11.5-0.3,20.9,1.5,27.5,11.4c0.2,0.4,0.8,0.5,1.2,0.8L180.9,76.5z M265.8,217.9v-28.7
		c0-23.3,0-46.6-0.1-69.9c0-1.7-0.7-4.3-1.9-4.9c-3.7-1.9-7.5,0-9.1,3.9c-7.5,17.9-11.8,36.4-10.2,55.8
		C245.9,190.7,252.4,205.2,265.8,217.9z M161.2,176.8v-64.9c-3.3,3.7-5.6,6.4-8,8.8c-7.5,7.4-13.5,7.8-20.2-0.5
		c-7.4-9.2-16.4-5.4-26.3-6L161.2,176.8z M107.2,222.2l-14.5-16.7c0.1,2.4,0.2,3.7,0.2,5C93.2,223.2,93.2,223.2,107.2,222.2
		L107.2,222.2z"/>
	<path class="st1" d="M354,77c-7,6.8-14.1,13.5-21.1,20.4c-5.5,5.5-11,11.1-16.8,17.1c-3.7-3.1-7-6.2-10.6-8.7
		c-2.3-1.5-5.3-2.9-8-2.9c-32.3-0.2-64.6-0.1-96.9-0.1h-6.5c7.3-9.8,13.9-19,23.4-25.3c2-1.3,5.1-1.4,7.6-1.4
		c43-0.1,86-0.1,128.9-0.1V77z"/>
	<path class="st1" d="M1.5,259.8L41,220.3c10,10.9,23,13.7,37.5,13.2c14.1-0.5,28.3,0,42.5-0.2c2.2,0,4.3-1,6.5-1.6
		c-1-2.2-1.4-4.7-2.9-6.4c-19.7-22.7-39.4-45.2-59.2-67.7l-38.7-44.1c1.8-0.2,3-0.4,4.2-0.4c18.7,0,37.3-0.1,56,0.1
		c2.4,0,4.7,0.9,6.4,2.6c25.1,28.5,50.1,57,74.8,85.9c4.9,5.6,8.9,12,11.9,18.9c6.6,15.8-4.6,35-21.6,38.3
		c-3.4,0.6-6.9,0.9-10.4,0.9c-47.2,0.1-94.3,0.1-141.5,0H1.5z"/>
	<path class="st1" d="M329,246.2c-7.4,8.3-17.2,14.1-28,16.6c-65,15.9-108-28.3-119.4-73c-4-15.9-1.8-32.1,1.1-48.1
		c1.5-8.3,4.1-16.4,6.4-24.5c0.5-1.5,2.4-3.7,3.7-3.7c17-0.2,33.9-0.2,51.1-0.2c-2.7,8.8-5.6,17.1-7.6,25.6c-5.9,25-5.3,49.3,9,71.7
		c14.3,22.4,35.4,33.5,61.5,35.4C313.8,246.6,320.8,246.2,329,246.2z"/>
	<path class="st1" d="M310.9,19.4c-2.5,1.1-5.1,2.1-7.6,3.2c-17.5,7.6-30.1,19.8-35.5,38.6c-0.8,2.8-2.3,3.6-5,3.5
		c-11.7-0.1-23.4,0.4-35-0.2c-9.8-0.5-17.5,2.9-24.1,9.8c-1.8,1.9-3.6,3.9-6,6.5c-0.3-1-0.5-2.1-0.6-3.2c-0.2-18.7-0.4-37.3-0.7-56
		c-0.1-3.2,1-4.6,4.1-5.6c13.2-4.1,26.2-8.8,39.4-12.6c3.2-0.9,7.1,0.1,10.6,0.8c20.2,4.6,40.3,9.3,60.5,14L310.9,19.4z"/>
	<path class="st1" d="M198,362.5V243.9c8.2,6.3,16.8,13.8,26.2,20.1c11.2,7.5,24.2,10.8,37.6,12.2c3.3,0.4,4.2,1.6,4.1,4.6
		c-0.3,4.5-0.3,9,0,13.5c0.8,7.6-1.6,13.5-6.6,19.4c-16.3,19.1-35.9,35.2-57.8,47.7C200.3,361.8,199.2,362.2,198,362.5z"/>
	<path class="st1" d="M48.1,18.4C70.4,13.1,92.7,7.9,115,2.8c1.4-0.2,2.9-0.1,4.3,0.5c12.8,4.2,25.5,8.5,38.4,12.6
		c3,0.9,4.4,2.2,4.4,5.5c-0.2,13-0.3,26-0.2,39c0,3.2-1,4.4-4.3,4.4c-20.7-0.1-41.3,0-62-0.2c-1.4,0-3.8-1.5-4.1-2.7
		c-5.7-21.3-20.4-33.7-40.1-41.1c-1.1-0.4-2.1-0.8-3.2-1.2L48.1,18.4z"/>
	<path class="st1" d="M159.4,363.2c-9.9-6.9-20.3-12.7-29.1-20.4c-12-10.5-22.7-22.3-34-33.6c-2.7-2.7-3.7-5.9-3.5-9.9
		c0.3-9.1,0.1-18.2,0.1-28.1h5.7c11.3,0,22.7,0.1,34,0c8-0.1,15.9-0.5,23.9-0.8c2.4-0.1,4.3-0.1,4.3,3.2
		c-0.2,29.3-0.3,58.6-0.3,87.9C160.2,362.1,159.8,362.7,159.4,363.2z"/>
	<path class="st1" d="M180.9,76.5l-37.6,38.2c-0.4-0.3-1-0.4-1.2-0.8c-6.6-10-16-11.7-27.5-11.4c-30.3,0.8-60.6,0.2-90.9,0.2
		c-5.3,0-6.7-1.5-6.1-6.9c0.5-4.7,2.9-9,6.7-11.8c6.5-5.1,14.5-7.8,22.7-7.8c44.3-0.2,88.6-0.1,132.9-0.1
		C180.3,76.2,180.6,76.3,180.9,76.5z"/>
	<path class="st1" d="M265.8,217.9c-13.4-12.7-19.9-27.2-21.3-43.7c-1.6-19.4,2.7-38,10.2-55.8c1.6-3.9,5.4-5.8,9.1-3.9
		c1.2,0.6,1.9,3.2,1.9,4.9c0.1,23.3,0.1,46.6,0.1,69.9V217.9z"/>
	<path class="st1" d="M161.2,176.8l-54.5-62.5c9.9,0.6,18.9-3.2,26.3,6c6.7,8.3,12.7,7.9,20.2,0.5c2.5-2.4,4.7-5.1,8-8.8V176.8z"/>
	<path class="st1" d="M107.3,222.2c-14.1,0.9-14.1,0.9-14.3-11.7c0-1.3-0.1-2.6-0.2-5L107.3,222.2z"/>
</g>
</svg>
