<?xml version="1.0" encoding="utf-8"?>
<!-- Generator: Adobe Illustrator 25.2.1, SVG Export Plug-In . SVG Version: 6.00 Build 0)  -->
<svg version="1.1" id="layer" xmlns="http://www.w3.org/2000/svg" xmlns:xlink="http://www.w3.org/1999/xlink" x="0px" y="0px"
	 viewBox="0 0 500 500" style="enable-background:new 0 0 500 500;" xml:space="preserve">
<style type="text/css">
	.st0{fill:#B9B9BF;}
</style>
<g>
	<polygon class="st0" points="311.8,362.2 321.5,350.1 311.8,338 	"/>
	<polygon class="st0" points="120.2,362.2 120.2,338 110.5,350.1 	"/>
	<path class="st0" d="M204.9,331.2c-10.4,0.3-18.7,9-18.4,19.4s9,18.7,19.4,18.4c0,0,0,0,0,0c10.3-0.1,18.5-8.6,18.4-18.9
		c0-0.2,0-0.3,0-0.5C224,339.1,215.3,330.9,204.9,331.2z"/>
	<path class="st0" d="M0,0v500h500V0H0z M262.7,228.1l85-106.2c0.2-0.3,0.6-0.5,1-0.5c0.7,0,1.3,0.6,1.3,1.3v77.8
		c0,1.3-0.5,2.5-1.3,3.4l-19.4,24.2c-1,1.3-2.5,2.1-4.2,2.1h-61.4c-0.3,0-0.6-0.1-0.8-0.3C262.3,229.4,262.2,228.6,262.7,228.1z
		 M149.9,122.8c0-0.4,0.2-0.7,0.5-1c0.6-0.5,1.4-0.4,1.8,0.2l129.5,161.8c0.2,0.2,0.3,0.5,0.3,0.8c0,0.7-0.6,1.2-1.3,1.2h-61.4
		c-1.7,0-3.3-0.7-4.3-2L151.2,204c-0.8-1-1.2-2.2-1.3-3.4V122.8z M58.7,377.4h-8c-0.6,0-1-0.4-1-1v-52.6c0-0.6,0.4-1,1-1h8.2
		c0.6,0,1,0.4,1,1v37.3l29.8-37.3c0.5-0.6,1.3-1,2.1-1h10.4c0.1,0,0.3,0,0.4,0.1c0.3,0.2,0.3,0.6,0.1,0.9l-42,52.6
		C60.2,377,59.5,377.4,58.7,377.4z M130.4,376.4c0,0.6-0.4,1-1,1h-8c-0.8,0-1.6-0.4-2.1-1l-14.5-18.1l-14.4,18.1
		c-0.6,0.6-1.4,1-2.2,1H77.8c-0.1,0-0.3,0-0.4-0.1c-0.3-0.2-0.3-0.6-0.1-0.9l41.2-51.6c1-1.3,2.6-2,4.2-2h6.7c0.6,0,1,0.4,1,1V376.4
		z M176.3,368.7l-6.1,7.7c-0.5,0.6-1.3,1-2.1,1h-24.3c-0.5,0-0.9-0.4-1-0.9v-52.6c0-0.6,0.4-1,1-1h8.2c0.6,0,1,0.4,1,1v43.8h22.8
		c0.1,0,0.3,0,0.4,0.1C176.4,368,176.5,368.4,176.3,368.7z M205.9,378.8c-15.9,0-28.7-12.8-28.7-28.7s12.8-28.7,28.7-28.7
		s28.7,12.8,28.7,28.7S221.8,378.8,205.9,378.8z M292.3,377.5h-10.5c-0.8,0-1.6-0.4-2.1-1l-18.1-22.7c-0.3-0.4-0.3-0.9,0-1.3
		l15.9-19.9H254v43.8c0,0.6-0.4,1-1,1h-8.2c-0.6,0-1-0.4-1-1v-52.6c0-0.6,0.4-1,1-1h42c0.6,0,1,0.4,1,1v11.4c0,0.6-0.2,1.2-0.6,1.6
		L274.3,353l18.5,23.5c0.1,0.1,0.1,0.2,0.1,0.4C292.9,377.2,292.6,377.5,292.3,377.5z M354.2,377.4h-10.5c-0.8,0-1.6-0.4-2.1-1
		l-14.4-18.1l-14.5,18.1c-0.5,0.6-1.3,1-2.1,1h-8c-0.6,0-1-0.4-1-1v-52.6c0-0.6,0.4-1,1-1h8c0.8,0,1.6,0.4,2.1,1l42,52.6
		C355.1,376.8,354.8,377.4,354.2,377.4z M398.2,376.4c0,0.6-0.4,1-1,1h-8c-0.8,0-1.6-0.4-2.1-1l-29.8-37.3v22c0,0.2-0.1,0.4-0.2,0.5
		c-0.3,0.2-0.7,0.1-0.9-0.1l-8.5-10.7c-0.4-0.5-0.6-1.1-0.6-1.7v-25.3c0-0.6,0.4-1,1-1h8c0.8,0,1.6,0.4,2.1,1l29.8,37.3v-37.3
		c0-0.6,0.4-1,1-1h8.2c0.6,0,1,0.4,1,1V376.4z M448.9,332.5h-18v43.8c0,0.6-0.4,1-1,1h-8.2c-0.6,0-1-0.4-1-1v-43.8h-14.3
		c-0.6,0-1-0.4-1.1-1v-7.7c0-0.6,0.4-1,1-1h34.8c0.8,0,1.6,0.4,2.1,1l6.2,7.7c0.1,0.1,0.1,0.2,0.1,0.4
		C449.5,332.2,449.2,332.5,448.9,332.5z"/>
</g>
</svg>
