<svg id="Layer_1" data-name="Layer 1" xmlns="http://www.w3.org/2000/svg" viewBox="0 0 24 24" fill="none"
  stroke="currentColor" stroke-width="2" stroke-linecap="round" stroke-linejoin="round"
  class="feather feather-chevron-down">
  <path d="M13.75,4.87S12.2,3.47,11.46,5s2,1.31,2.31,1.27,1.9-.5,2.09.54-.08,1.28-1.27,1.7a25.23,25.23,0,0,1-5.8.31" />
  <line x1="9.91" y1="8.85" x2="9.18" y2="14.75" fill="none" stroke="#000" stroke-linecap="round"
    stroke-miterlimit="10" />
  <path
    d="M8,15.91s4.09-4.4,5.17-4.75,4.6-1.59,7.31,1.47c0,0-.08,9.27-.27,9.62,0,0-12.45-.54-13.84-1.2A5.84,5.84,0,0,1,2.84,14.4,41.15,41.15,0,0,1,6.36,5a12.83,12.83,0,0,1,2-1.82c.31-.12,1.05-1.55,2.82-1.58a7.48,7.48,0,0,1,4.54,1.57,3.28,3.28,0,0,1-.17,3" />
  <path d="M12,18.18s3.6,1.5,5.75-.88" />
</svg>