<svg id="Layer_1" data-name="Layer 1" xmlns="http://www.w3.org/2000/svg" viewBox="0 0 2500.01 460.8">
  <path d="M63.16,18.35C107-3,158.21-3.67,205.17,5.91c35.57,8.53,73.33,28.68,86.76,64.86,13.43,41.69,10.53,86.16,10.59,129.3-42.66-.18-85.31,0-127.91-.06-.9-35.82,1.94-71.82-1.75-107.52.78-24.69-43-24.51-42.36.18-4.6,56.15-1.09,112.66-2.17,169,1,35.94-2.61,72.37,3.09,108C134.93,384,152.84,385,164.15,380.2c8.71-6.23,8.89-17.67,9.8-27.29,1.39-26.74.3-53.48.67-80.23,42.71-.12,85.36-.06,128.08-.06-1.27,40.6,2.36,83.8-14.7,121.74-28.32,46.89-87.37,64.5-139.41,62.87-45.86-.42-98.38-11-126.87-50.53C1.33,374.79,2.05,335,.42,298.43c.3-64.8-2.18-129.72,2.3-194.4C4.59,66.81,30.13,34,63.16,18.35ZM371.37,8.12q92.94-1.26,185.94,0C580.84,154.91,606,301.45,630,448.18c-39.87-.13-79.74,0-119.62-.13-3.51-27.47-6.11-55.06-10.4-82.47-14.23.24-28.5.24-42.73.18,2.55-24.57,5.33-49.13,8-73.7,8.77,0,17.49-.06,26.26-.06-8-62.86-14-126-23.6-188.65-12.5,115.08-27.51,229.86-41.18,344.82q-60-.07-120-.05C328,301.46,350.5,154.91,371.37,8.12Zm280.5-.42c42.42-.12,84.89-.06,127.37-.06q.09,176.07.06,352.07c26,.13,51.91.07,77.87.07.12,29.47.06,58.87.06,88.34-68.43.06-136.86-.06-205.29,0Q651.74,227.93,651.87,7.7Zm235.61,0c42.54-.12,85.13-.06,127.73-.06q.18,176.07.06,352.07c25.71.13,51.43.07,77.14.07q.09,44.21.06,88.34H887.54Q887.36,227.91,887.48,7.7Zm363.39,0c56.27-.42,112.6,0,168.81,2.48,29.59,2.12,60.56,4.18,87,19.12,23.78,14.28,38.36,41.33,38.6,69,3.87,76.6,1.63,153.44,1.88,230.1-1.52,31.64,1.81,68.43-21.12,93.66-25.54,23.35-62.19,24.5-94.93,25.84-60,.66-120.1,0-180.19.24q-.09-220.18,0-440.42M1378.6,83.45q.09,145,0,290c12.16-2.66,30.68-.18,36.06-14.58,7.5-31.76,3.5-64.91,4.53-97.35-1-53,2.25-106.25-1.87-159.19C1415.57,83.27,1392.7,84.06,1378.6,83.45ZM1579,7.7c42.36-.13,84.71,0,127.06-.06q.09,160.45,0,320.92c.25,14.16-.06,28.44,2.61,42.41,1.93,16,30.19,15.31,31.4-.78,2.84-13.79,2.54-28,2.72-41.93-.12-106.86.06-213.71-.12-320.56,42.35-.18,84.71,0,127.12-.06-.12,102.86.37,205.72-.24,308.52-1.33,28.31,1.81,59.47-15,84.1-20,33.57-58.93,50.63-96.57,54.63-47.68,5.44-99.53-.18-139.46-28.86-25.11-17.85-38.24-48.59-37.94-79-3-113.07-.91-226.21-1.58-339.36Zm318.19-.06H2176.9c.06,29.47,0,58.87.06,88.34-25.29,0-50.58-.06-75.81.06V448.12c-42.72,0-85.44.06-128.15-.06v-352c-25.17-.06-50.34-.12-75.51,0-.54-29.47-.25-58.93-.31-88.4Zm302.65,0c39.21.48,78.42-1,117.63.79,24.07,79.08,50.4,157.43,75.32,236.27,5.75,19.49,15.19,38.54,14.58,59.3-.3,48.82-.06,97.66-.17,146.48q-58.9.09-117.75,0c0-46.83-.18-93.66.12-140.55.13-10.52-.55-21.24-3.87-31.35C2256.91,188.37,2228.52,98,2199.84,7.64Zm183.27.06c39-.13,77.93,0,116.9-.06-27.49,83.38-54.59,166.87-82,250.27-17.43-55.66-37-110.78-52.76-166.87,3.65-28.13,12.18-55.51,17.86-83.34Z" transform="translate(0 0.01)" fill="#528a63"/>
  <path d="M1078,113.28c22.39-9.86,55.91-.3,59.6,26.69a591.07,591.07,0,0,1-.24,98.13c-6.78,37.45-69.4,39.21-79.27,2.91-4.84-29.1-2.11-59-2.23-88.46-.73-15.91,6.71-33,22.14-39.27m15.25,20.82c-2.66,36-1.57,72.18-.67,108.24l8.53-2.78c3.82-33.22,2.67-67.29.79-100.62C1099.78,137.73,1095.43,135.31,1093.25,134.1Zm57.6-21.12c19.3-.06,38.54-.12,57.78,0-.06,10-.12,20-.12,30.07l-23.42.18c0,9.62-.06,19.24-.06,28.86,7,.06,14,.12,21.06.25,0,9.19,0,18.39.06,27.59l-21.06.18c0,21.36-.06,42.65,0,64-11.43,0-22.81.06-34.17.12q-.11-75.71-.07-151.27Z" transform="translate(0 0.01)" fill="#528a63"/>
  <path d="M2453.1,408.76q12.32,0,20.27,7.74a24.65,24.65,0,0,1,8,18.28,24.34,24.34,0,0,1-8.09,18.38,28.57,28.57,0,0,1-38.9,0,25.45,25.45,0,0,1,6.87-41.54,29,29,0,0,1,11.89-2.88Zm1.36,5.06q-10.12,0-16.42,6.32a20.23,20.23,0,0,0-6.28,14.65,19.56,19.56,0,0,0,6.5,14.77,22.87,22.87,0,0,0,31.22,0,20.07,20.07,0,0,0,3.23-25.74,20.65,20.65,0,0,0-8.41-7.5A22.49,22.49,0,0,0,2454.46,413.82Zm-12.75,34.87V421.07h13.83c3.42,0,5.92.75,7.47,2.25a7.4,7.4,0,0,1,2.33,5.56,6.88,6.88,0,0,1-2,5.13,10.87,10.87,0,0,1-5.91,2.62,7.13,7.13,0,0,1,2.85,1.75,33.2,33.2,0,0,1,3.37,4.78l3.4,5.53h-7.29l-2.44-4.45a20.35,20.35,0,0,0-3.86-5.42,6.5,6.5,0,0,0-4.36-1.44h-1.55V448.7h-5.84ZM2447.6,433h4.81a10.87,10.87,0,0,0,5.16-.89,3.18,3.18,0,0,0,1.52-2.94,3,3,0,0,0-1.5-2.75,8.89,8.89,0,0,0-4.56-.92h-5.42V433Z" transform="translate(0 0.01)" fill="#528a63"/>
</svg>
