<?xml version="1.0" encoding="utf-8"?>
<!-- Generator: Adobe Illustrator 25.2.1, SVG Export Plug-In . SVG Version: 6.00 Build 0)  -->
<svg version="1.1" id="Layer_1" xmlns="http://www.w3.org/2000/svg" xmlns:xlink="http://www.w3.org/1999/xlink" x="0px" y="0px"
	 viewBox="0 0 260.7 112.31" style="enable-background:new 0 0 260.7 112.31;" xml:space="preserve">
<style type="text/css">
	.st0{fill-rule:evenodd;clip-rule:evenodd;}
</style>
<g>
	<path class="st0" d="M252.11,52.72h-26.17c-4.73,0-8.6,3.86-8.6,8.6v22.54c0,4.73,3.86,8.6,8.6,8.6h26.17c4.73,0,8.6-3.86,8.6-8.6
		V61.32C260.7,56.59,256.84,52.72,252.11,52.72L252.11,52.72z M155.95,23.08h-3.22v-0.56c0.88,0.02,1.44-0.17,1.05-0.95
		c-0.59-1.17,1.98-1.11,2.36-0.85C156.82,21.17,156.38,22.46,155.95,23.08L155.95,23.08z M151.55,23.86h3.9
		c-0.43,0.65-1.65,2.87-2.43,2.87C152.7,26.29,151.67,24.86,151.55,23.86L151.55,23.86z M226.07,61.32h25.89v22.54h-25.89V61.32
		L226.07,61.32z M172.93,61.32h36.03v0c0-4.73-3.86-8.6-8.6-8.6h-27.66c-4.73,0-8.6,3.86-8.6,8.6v22.54c0,4.73,3.86,8.6,8.6,8.6
		h27.66c4.73,0,8.6-3.86,8.6-8.6V68.99h-29.25v0c0,3.66,2.98,6.64,6.64,6.64h14.4v8.23h-27.83V61.32L172.93,61.32z M60.41,61.32
		h34.4v0c0-4.73-3.86-8.6-8.6-8.6H59.6c-4.73,0-8.6,3.86-8.6,8.6v6.97c0,4.73,3.86,8.6,8.6,8.6h26.69v6.97H51l0,0
		c0,4.73,3.86,8.6,8.6,8.6h27.51c4.73,0,8.6-3.86,8.6-8.6v-6.97c0-4.73-3.86-8.6-8.6-8.6H60.41V61.32L60.41,61.32z M10.89,61.32
		h32.47v0c0-4.73-3.86-8.6-8.6-8.6H8.6c-4.73,0-8.6,3.86-8.6,8.6v22.54c0,4.73,3.86,8.6,8.6,8.6h26.17c4.73,0,8.6-3.86,8.6-8.6l0,0
		H10.89V61.32L10.89,61.32z M164.23,19.17c-0.17,0.09-0.37,0.17-0.64,0.22c-1.23,1.74-0.49,1.53-2.65,2.98
		c0,2.91,0.09,3.22,0.77,5.8c0.02,0.06,0.01,0.12-0.03,0.18c-0.03,0.05-0.08,0.09-0.14,0.1c-0.52,0.11-1.28,0.31-1.71,0.39
		c0.01,0.09,0.22,1.74-0.01,2.97c-0.37,1.93-4.95,6.14-6.05,6.36c-1.52,0.3-3.21-1.04-5.86-2.2c-0.73-0.32-3.18-1.93-4.46-2.36
		c-1.06-0.35-2.13,2.23-0.81,2.93c0.62,0.32,1.6,0.76,1.91,1.56c0.92,2.38-0.14,11.56-2.04,13.41c-0.9-0.01-1.65-0.83-2.32-0.62
		c-1.19,0.65-0.44,4.29,0,4.93c7.33,7.54,6.46,13.12,9.57,17.29c1.42,0,0.49,1.5,1.56,3.27c0.29,0.91-0.08,2.45-0.24,3.03
		c0,0.76,0,1.52,0,2.27c-0.08,0.24-0.16,0.47-0.24,0.71c0,0.66,0,1.33,0,1.99c-0.22,0.97-0.46,2.27-0.66,3.17
		c-0.43,1.91,1.24,3.39,0.24,5.21c0,1.12,0,0.89-0.66,1.8c0,1.73-0.41,5.39,0,6.68c0.28,0.9,3.54,4.7,4.36,5.07
		c1.97,0.88,4.87,0.69,3.93,3.79c-5.76,1.77-9.44-1-12.52-1.04l-0.14,0.53c-1.97,0-3.54-0.48-3.97-0.62c0-0.53,0.64-4.61,0.85-5.26
		c0.22-0.35,0.44-0.7,0.66-1.04c0.24-0.69-0.24-5.78-0.28-7.15c-1.23-0.9-1.47-3.65-1.47-5.16c-0.35-1.17-0.35-2.56-0.43-4.07
		c-0.03-0.71-0.46-1.76-0.19-2.65c0.18-0.61,0.87-0.88,1.04-1.37c0-0.57,0-1.14,0-1.71c0.32-1.79,0.22-2.62-0.85-3.69
		c-2.7,0.03-3.07,0.16-4.55-2.13c-0.46-0.71-4.23-6.66-4.59-6.82c-3.14-1.37-2.51-0.84-3.88-3.27c-0.06,0-0.89,0.28-1.63,1.38
		c-1.12,1.68-3.11,7.13-3.68,9.04c-0.32,1.07,0,2.24-0.47,3.13c-0.34,0.64-1.46,0.84-1.71,1.28c-1.1,1.98-0.28,1.83-2.37,3.22
		c-0.38,0.49-0.39,1.21-0.66,1.8c-0.16,0.22-0.32,0.44-0.47,0.66c-0.35,0.76,0.37,2.13,0.24,2.61c-0.36,1.24-0.84,2.49-1.33,3.65
		c-0.96,2.28-0.83,5.3-1.8,6.7c-0.49,0.7-1.66,0.02-2.56,0.6c-0.05,0.49-1.47,3.74-1.75,4.64c0,1.72,0,3.44,0,5.16
		c0.27,0.87,1,1.7,0.78,2.8c-0.23,1.17-4.31,1.15-6.53,0.84c-1.48-0.21-1.93-1.31-1.9-2.57c0.03-1.49,3.04-11.18,2.86-11.82
		c-2.29-2.57,0.61-5.23,1.47-7.63c0.42-1.17,0.16-2.8,0.62-3.88c0.81-1.47,1.61-2.94,2.42-4.41c1.47-1.39,0.81-1.46,1.61-2.7
		c0.69-1.08,1.53-1.81,1.04-3.46c-0.98-3.32,1.14-8.03,1.28-11.51c-0.37-0.39-1.65-0.27-1.81-1.33c-0.32-2.16,0.82-5.98,1.52-6.34
		c0.31-0.16,0.67-0.02,0.95-0.19c0-1.62-1.61-10.63-0.39-11.08c0.75-0.28,2.49-0.43,2.82-0.58c-0.02-0.38-0.28-1.2-0.6-1.25
		c-0.54-0.07-1.64-0.28-2.52-0.48c-2.69-0.62-0.2-11.24-0.17-11.28c0.74-0.98,4.18,0.34,4.59-1.33c1.15-1.47-0.89-7.11,3.04-14.05
		c1.32-2.35,3.86-4.71,6.82-3.71c0.99,0.34,0.39,1.76,2.13,0.24c0.04-0.89-0.37-1.63-0.62-2.37c-2.9-8.64,6.92-13.32,13.78-8.38
		c0.77,0.31,1.22,0.47,1.8,0.9c0.38,1.96,2.32,5.44,0.38,7.72c-0.79,0.17-1.76,0.61-2.37,1.04c-0.01,0.79,0.09,1.52,0.24,1.99
		c0.13,0.42,0.38,0.59-0.26,0.85c-0.08,0.03-0.05,0.3,0,0.4c1.6,0.32,3.31-0.3,4.38-0.73h1.28v-1.61h0.33h0.28v-1.26h0.61v2.18h1.6
		v0.69h23.68v1.23h1.05v-4.5h0.88v3.66h2.02v2.09h6.27v-0.62h1.04v0.27h2.96v1.74h-2.96v0.27h-1.04V17.7h-6.27v0.62
		c-0.92,0-1.84,0-2.76,0V17.9h-1.18v1.26H164.23L164.23,19.17z"/>
</g>
</svg>
