<?xml version="1.0" encoding="utf-8"?>
<!-- Generator: Adobe Illustrator 25.2.1, SVG Export Plug-In . SVG Version: 6.00 Build 0)  -->
<svg version="1.1" id="Layer_1" xmlns="http://www.w3.org/2000/svg" xmlns:xlink="http://www.w3.org/1999/xlink" x="0px" y="0px"
	 viewBox="0 0 32.1 31.8" style="enable-background:new 0 0 32.1 31.8;" xml:space="preserve">
<style type="text/css">
	.st0{fill:#690F0F;}
</style>
<path class="st0" d="M31.2,11.2l0.9-0.5V1.4l-1-0.5l-3-0.2l-0.8,0.5V0.4l-6-0.4L21,1.2l-1.4,0.2L17.9,0h-4.7l-1.6,1.2h-3L8.4,0.8
	l-8-0.2L0.2,2.2C0.4,3.1,0.5,4,0.5,4.9c0,1-0.2,2-0.5,3v1.6l0.6,2.9l-0.3,1v0.8l0.8,0.6v0.8l-0.8,0.9v3.3l0.7,1l-0.1,2.6l-0.6,1.2
	v2.2l0.3,0.4v0.9l-0.2,0.5V30l0.8,0.6h4.2L6,30.3l0.5,0.3l0.5-0.2l0.6,0.2L9,30.7l1.5-0.4l0.2,0.4l1.6,0.1l0.4-0.4l1.2,1.5l1-0.9
	l0.3,0.3l1-0.1l0.8,0.6l1.4-0.8h5.2l0.6-0.5l0.7,0.3h4l-0.4-0.6h1l2.7,0.7V18.2H31l0.9-0.9v-2.6l-1.3-2l0.6-0.6L31.2,11.2z
	 M23.8,5.6L26,6.9l-0.7,4.5l-6.2-4.5L23.8,5.6z M8.9,26.4H6.4l-2.2-1.9l1.9-5.6l6.4,6.1L8.9,26.4z M26.3,26.1h-3.5L3.6,6.2l2.4-1
	l22.4,15.1L26.3,26.1z"/>
</svg>
