<?xml version="1.0" encoding="utf-8"?>
<!-- Generator: Adobe Illustrator 25.2.1, SVG Export Plug-In . SVG Version: 6.00 Build 0)  -->
<svg version="1.1" id="Layer_1" xmlns="http://www.w3.org/2000/svg" xmlns:xlink="http://www.w3.org/1999/xlink" x="0px" y="0px"
	 viewBox="0 0 50 50" style="enable-background:new 0 0 50 50;" xml:space="preserve">
<style type="text/css">
	.st0{fill-rule:evenodd;clip-rule:evenodd;fill:#482AC2;}
	.st1{fill-rule:evenodd;clip-rule:evenodd;fill:#FFFFFF;}
</style>
<g id="fortnite_squircle">
	<g id="fortnite">
		<path id="Background" class="st0" d="M6,0h38c3.3,0,6,2.7,6,6v38c0,3.3-2.7,6-6,6H6c-3.3,0-6-2.7-6-6V6C0,2.7,2.7,0,6,0z"/>
		<path id="Shape" class="st1" d="M26.5,21.1V16h5.2l0.6-7h-13v32.1l7.2-1.3V28h4.4l0.1-6.9L26.5,21.1z M8.4,10.7h9.3l0.1-3.2h16
			v3.2h9.6l-0.8,8l0.8,18.9L28,36.8v4.3L17.8,43l0-5l-9.4,1.2l0.8-19.4L8.4,10.7z"/>
	</g>
</g>
</svg>
