<?xml version="1.0" encoding="utf-8"?>
<!-- Generator: Adobe Illustrator 25.2.1, SVG Export Plug-In . SVG Version: 6.00 Build 0)  -->
<svg version="1.1" id="Layer_1" xmlns="http://www.w3.org/2000/svg" xmlns:xlink="http://www.w3.org/1999/xlink" x="0px" y="0px"
	 viewBox="0 0 88 88" style="enable-background:new 0 0 88 88;" xml:space="preserve">
<style type="text/css">
	.st0{fill:#CCB47C;fill-opacity:0.7;}
</style>
<path class="st0" d="M12,0l8,13v62l-8.5,13h60.3L84,72H40V0H12z M48,0.2v8c19.8,2.2,34,20,31.8,39.8c-0.6,5.7-2.7,11.2-5.9,16h9.2
	c3.2-6.2,4.9-13,4.9-20C88,21.3,70.6,2.3,48,0.2z M11.5,14.4c-15.3,16.7-15.3,42.3-0.1,59l0.6-0.9V60.4c-5.3-10.3-5.3-22.5,0-32.8
	V15.3L11.5,14.4z"/>
</svg>
