<?xml version="1.0" encoding="utf-8"?>
<!-- Generator: Adobe Illustrator 25.2.1, SVG Export Plug-In . SVG Version: 6.00 Build 0)  -->
<svg version="1.1" id="Layer_1" xmlns="http://www.w3.org/2000/svg" xmlns:xlink="http://www.w3.org/1999/xlink" x="0px" y="0px"
	 viewBox="0 0 354 364" style="enable-background:new 0 0 354 364;" xml:space="preserve">
<style type="text/css">
	.st0{fill:none;}
	.st1{fill:#3A6AA4;}
	.st2{fill:#4E4E4E;}
</style>
<g>
	<path class="st0" d="M353.9,77.1c0,94.2,0,188.3,0.1,282.5c0,3.4-0.4,4.4-4.2,4.4c-50.2-0.2-100.5-0.1-150.8-0.1
		c0.1-1.2,1.2-1.4,2.1-1.9c21.8-12.2,41.3-28.1,57.6-47c5.6-6.4,9.4-12.9,8.1-21.8c-0.5-4.3-0.5-8.6,0-13c0.3-3.5-1.1-4.5-4.4-4.8
		c-25.3-2.2-45.8-13.8-62.8-32.2c-0.7-0.8-1.1-2.2-2.7-1.6c0,10.8,0,21.6,0,32.4l0.1,89.8h-36c0.1-1.1,0.2-2.3,0.2-3.5
		c0.2-27,0.3-53.9,0.5-80.9c0-3.1,1.1-7.3-0.4-9.2c-1.9-2.4-6.1-0.1-9.3-0.1c-18.5-0.1-37,0.1-55.4,0c-3.5,0-4.6,0.9-4.5,4.4
		c0.3,8.6,0.2,17.3,0,26c-0.1,2.6,0.9,5.2,2.6,7.2c9.4,12.1,20.1,23.1,31.9,32.9c10.4,8.8,22.1,15.8,33.5,23.2H0.1V246.6
		C0.1,165.7,0,84.8,0,3.9C0,0.8,0.6,0,3.8,0c115.6,0.1,231.1,0.1,346.7,0c3.1,0,3.5,0.8,3.5,3.6c-0.1,24.1-0.1,48.3-0.1,72.4
		c-1.8-0.1-3.6-0.3-5.4-0.3c-37.5,0-75,0.8-112.4-0.4c-15.2-0.5-25.5,4.6-33.7,16.3c-2.6,3.7-5.5,7.1-8.9,11.4
		c32.5,0,63.7,0.3,94.8-0.2c9.5-0.2,17.6,1.3,23.9,8.9c2.5,3,4.4,2.7,7.2-0.2C330.7,99.9,342.4,88.5,353.9,77.1z M0.9,259.1
		c2,1.4,3.5,0.9,4.9,0.9c47.3,0,94.6,0,141.8,0c2.5,0,5,0,7.5-0.3c18.7-1.7,31.7-21.6,25.4-39c-3.1-8.6-8.8-15.6-14.7-22.4
		c-23.8-27.3-47.6-54.7-71.4-82.1c-1.8-2.4-4.7-3.7-7.6-3.5c-16.5,0.2-33,0.1-49.4,0.1H25.8c10.4,11.9,20.2,23,29.9,34.1
		c22.9,26.1,45.8,52.3,68.7,78.5c1.5,1.7,3.8,3.7,2.8,6c-1,2.4-4.1,1.6-6.3,1.7c-15.5,0-31-0.2-46.4,0.1c-12.3,0.3-23-3.1-31.8-11.7
		c-1.7-1.6-2.6-1.4-4,0C26.2,233.9,13.7,246.4,0.9,259.1z M244.9,113.1c-17.1,0-33.7,0.1-50.3-0.1c-3.4,0-4.9,1.1-6,4.3
		c-5.4,15-7.6,30.6-8.9,46.3c-1,12-0.2,23.8,4.1,34.9c15,39.6,49.6,73.1,104.1,67.1c13.3-1.5,25.7-5.5,36.2-14.2
		c1.8-1.5,3.8-2.9,4.8-5.6c-7.3,0.5-14.6,0.5-21.9,0c-12.7-0.7-25-4.4-36-10.8c-28.6-16.8-42.8-50.5-36.5-85.3
		C236.6,137.2,240.2,124.9,244.9,113.1L244.9,113.1z M312.7,18.6c-23.4-6.3-46.2-11.4-69.1-16.5c-1-0.2-2-0.1-2.9,0.2
		c-14.1,4.6-28.1,9.2-42.1,13.8c-1.8,0.6-2.6,1.5-2.6,3.5c0.1,20.7,0,41.4,0,62.2c2.6-2.2,4.9-3.9,6.9-6c7-7.3,15.1-11.3,25.7-10.7
		c11.6,0.7,23.3,0.1,34.9,0.2c2.4,0,3.8-0.3,4.6-3.1c5.1-19.2,18-31.6,35.9-39.3C306.6,21.8,309.7,21.4,312.7,18.6z M46.7,18.2
		c0.9,2.4,2.2,2.6,3.5,3c20.4,7.3,35.6,19.9,40.7,42c0.7,2.9,2.5,2.2,4.2,2.2c21.2,0,42.3,0,63.4,0.1c3.2,0,4.3-0.8,4.3-4.2
		c-0.1-13.5-0.1-27,0.2-40.5c0.1-3.2-1.2-4.4-3.9-5.2c-8.9-2.8-17.9-5.2-26.5-8.8c-9.9-4.3-21-4.9-31.3-1.8
		C83.3,10.1,65.1,13.8,46.7,18.2L46.7,18.2z M181.7,75.8c-20,0-39.8,0-59.6,0c-25.6,0.1-51.3,0.1-76.9,0.3c-7.8,0.1-14.9,3-21.2,7.8
		c-4,2.9-6.4,7.4-6.8,12.3c-0.4,5.4,0.9,6.8,6.3,6.8c31.1,0,62.2,0.4,93.4-0.2c9.9-0.2,17.9,1.5,23.5,10c2,3.1,3.6,2,5.7-0.1
		c11.1-11.2,22.4-22.3,33.6-33.4C180.5,78.4,181.7,77.9,181.7,75.8z M266.4,219.4c0.2-1.5,0.3-1.9,0.3-2.4c0-33.1,0-66.2-0.1-99.2
		c0-1.7,1.2-4.8-2.1-4.5c-3.1,0.3-7.4-2.3-9.3,2c-7.7,17.5-12.6,35.8-11.8,55C244.3,189.4,251.6,205.7,266.4,219.4z M162,112.3
		l-1-0.8c-2.3,2.5-4.5,5.1-6.9,7.6c-8.6,8.6-13.2,8.5-21.7-0.1c-2.1-2.1-3.6-5.5-6.6-5.7c-6.5-0.4-13-0.1-20.6-0.1
		c19.3,22.1,37.8,43.3,56.8,65.2V112.3z M92.1,203.9c0,6.4,0,11.4,0,16.5c0,1.6,0.5,2.5,2.2,2.5c4.5,0,9,0,14.4,0L92.1,203.9z"/>
	<path class="st1" d="M197,363.9l-0.1-89.8c0-10.8,0-21.6,0-32.4c1.6-0.6,2,0.8,2.7,1.6c17,18.5,37.5,30,62.8,32.2
		c3.3,0.3,4.7,1.3,4.4,4.8c-0.5,4.3-0.5,8.6,0,13c1.3,8.9-2.5,15.4-8.1,21.8c-16.3,18.9-35.8,34.8-57.6,47c-0.8,0.5-1.9,0.7-2.1,1.9
		L197,363.9z"/>
	<path class="st1" d="M160,363.9c-11.4-7.4-23.1-14.4-33.5-23.2c-11.8-9.8-22.5-20.8-31.9-32.9c-1.7-2-2.6-4.6-2.6-7.2
		c0.2-8.7,0.2-17.3,0-26c-0.1-3.6,1-4.5,4.5-4.4c18.5,0.1,37,0,55.4,0c3.2,0,7.4-2.2,9.3,0.1c1.6,1.9,0.4,6,0.4,9.2
		c-0.1,27-0.3,53.9-0.5,80.9c0,1.2-0.1,2.3-0.2,3.5L160,363.9z"/>
	<path class="st2" d="M353.9,77.1c-11.6,11.5-23.2,22.9-34.6,34.5c-2.8,2.8-4.7,3.2-7.2,0.2c-6.3-7.6-14.4-9-23.9-8.9
		c-31.1,0.5-62.3,0.2-94.8,0.2c3.4-4.3,6.3-7.7,8.9-11.4c8.3-11.7,18.6-16.8,33.7-16.3c37.4,1.2,74.9,0.4,112.4,0.4
		c1.8,0,3.6,0.2,5.4,0.3L353.9,77.1z"/>
	<path class="st2" d="M0.9,259.1c12.8-12.7,25.3-25.2,37.7-37.6c1.5-1.5,2.4-1.6,4,0c8.8,8.6,19.5,12,31.8,11.7
		c15.5-0.3,31-0.1,46.4-0.1c2.3,0,5.3,0.8,6.3-1.7c1-2.3-1.3-4.2-2.8-6c-22.9-26.1-45.8-52.3-68.7-78.4
		c-9.7-11.1-19.5-22.2-29.9-34.1h11.6c16.5,0,33,0.1,49.4-0.1c3-0.2,5.8,1.2,7.6,3.5c23.7,27.4,47.5,54.8,71.4,82.1
		c5.9,6.8,11.6,13.8,14.7,22.4c6.3,17.4-6.8,37.2-25.4,39c-2.5,0.2-5,0.3-7.5,0.3c-47.3,0-94.6,0-141.8,0
		C4.5,260,2.9,260.5,0.9,259.1z"/>
	<path class="st2" d="M245,113.1c-4.8,11.8-8.3,24.1-10.5,36.7c-6.3,34.8,7.9,68.5,36.5,85.3c11,6.4,23.3,10.1,36,10.8
		c7.3,0.5,14.6,0.5,21.9,0c-0.9,2.7-3,4.1-4.8,5.6c-10.5,8.7-22.9,12.7-36.2,14.2c-54.5,6-89.1-27.5-104.1-67.1
		c-4.2-11.1-5.1-22.9-4.1-34.9c1.3-15.8,3.5-31.4,8.9-46.3c1.1-3.2,2.6-4.3,6-4.3C211.2,113.2,227.9,113.1,245,113.1z"/>
	<path class="st1" d="M312.7,18.6c-3,2.9-6,3.2-8.7,4.3c-17.9,7.7-30.8,20-35.9,39.3c-0.8,2.9-2.2,3.1-4.6,3.1
		c-11.6-0.1-23.3,0.5-34.9-0.2c-10.6-0.6-18.7,3.3-25.7,10.7c-2,2.1-4.3,3.8-6.9,6c0-20.8,0-41.5,0-62.2c0-2,0.8-2.9,2.6-3.5
		c14-4.6,28.1-9.2,42.1-13.8c0.9-0.3,1.9-0.4,2.9-0.2C266.5,7.2,289.3,12.3,312.7,18.6z"/>
	<path class="st1" d="M46.7,18.2c18.4-4.4,36.6-8.1,54.5-13.1c10.3-3.1,21.4-2.5,31.3,1.8c8.6,3.6,17.6,6,26.5,8.8
		c2.7,0.9,4,2,3.9,5.2c-0.3,13.5-0.3,27-0.2,40.5c0,3.4-1.1,4.2-4.3,4.2c-21.1-0.1-42.3,0-63.4-0.1c-1.6,0-3.5,0.7-4.2-2.2
		c-5.1-22.1-20.2-34.7-40.7-42C49,20.8,47.7,20.5,46.7,18.2z"/>
	<path class="st2" d="M181.7,75.8c0,2-1.1,2.6-1.9,3.4c-11.2,11.2-22.5,22.2-33.6,33.4c-2.1,2.1-3.7,3.2-5.7,0.1
		c-5.6-8.5-13.6-10.2-23.5-10c-31.1,0.7-62.2,0.2-93.4,0.2c-5.4,0-6.8-1.4-6.3-6.8c0.3-4.9,2.8-9.4,6.7-12.2
		c6.2-4.8,13.3-7.7,21.2-7.8c25.6-0.3,51.3-0.3,76.9-0.3C141.9,75.8,161.6,75.8,181.7,75.8z"/>
	<path class="st1" d="M266.4,219.4c-14.8-13.7-22.1-30-22.9-49c-0.9-19.3,4.1-37.5,11.8-55c1.9-4.4,6.2-1.7,9.3-2
		c3.3-0.3,2.1,2.8,2.1,4.5c0.1,33.1,0.1,66.2,0.1,99.2C266.7,217.5,266.5,217.9,266.4,219.4z"/>
	<path class="st1" d="M162,112.3v66.1c-19.1-21.9-37.5-43.1-56.8-65.2c7.6,0,14.1-0.3,20.6,0.1c3.1,0.2,4.6,3.6,6.6,5.7
		c8.5,8.6,13.1,8.7,21.7,0.1c2.4-2.4,4.6-5,6.9-7.6L162,112.3z"/>
	<path class="st1" d="M92.1,203.9l16.6,19c-5.4,0-9.9,0-14.4,0c-1.8,0-2.2-0.9-2.2-2.5C92.2,215.4,92.1,210.3,92.1,203.9z"/>
</g>
</svg>
