<?xml version="1.0" encoding="utf-8"?>
<!-- Generator: Adobe Illustrator 25.2.1, SVG Export Plug-In . SVG Version: 6.00 Build 0)  -->
<svg version="1.1" id="layer" xmlns="http://www.w3.org/2000/svg" xmlns:xlink="http://www.w3.org/1999/xlink" x="0px" y="0px"
	 viewBox="0 0 500 500" style="enable-background:new 0 0 500 500;" xml:space="preserve">
<style type="text/css">
	.st0{fill:#E63F4C;}
	.st1{fill:#111111;}
</style>
<rect class="st0" width="500" height="500"/>
<path class="st1" d="M350,200.5v-77.8c0-0.7-0.6-1.3-1.3-1.3c-0.4,0-0.7,0.2-1,0.5l-85,106.2c-0.5,0.5-0.4,1.3,0.2,1.8
	c0.2,0.2,0.5,0.3,0.8,0.3h61.4c1.7,0,3.2-0.8,4.2-2.1l19.4-24.2C349.5,203,350,201.8,350,200.5z M151.2,204l63.8,79.8
	c1,1.3,2.6,2,4.3,2h61.4c0.7,0,1.2-0.5,1.3-1.2c0-0.3-0.1-0.6-0.3-0.8L152.2,122c-0.5-0.6-1.3-0.6-1.8-0.2c-0.3,0.2-0.5,0.6-0.5,1
	v77.8C150,201.8,150.4,203,151.2,204z"/>
<path class="st1" d="M406.4,332.5h14.3v43.8c0,0.6,0.4,1,1,1h8.2c0.6,0,1-0.4,1-1v-43.8h18c0.3,0,0.6-0.3,0.6-0.6
	c0-0.1,0-0.3-0.1-0.4l-6.2-7.7c-0.5-0.6-1.3-1-2.1-1h-34.8c-0.6,0-1,0.4-1,1v7.7C405.4,332.1,405.8,332.5,406.4,332.5 M60.7,376.4
	l42-52.6c0.2-0.3,0.1-0.7-0.1-0.9c-0.1-0.1-0.2-0.1-0.4-0.1H91.8c-0.8,0-1.6,0.4-2.1,1l-29.8,37.3v-37.3c0-0.6-0.4-1-1-1h-8.2
	c-0.6,0-1,0.4-1,1v52.6c0,0.6,0.4,1,1,1h8C59.5,377.4,60.2,377,60.7,376.4 M90.4,376.4l14.4-18.1l14.5,18.1c0.5,0.6,1.3,1,2.1,1h8
	c0.6,0,1-0.4,1-1v-52.6c0-0.6-0.4-1-1-1h-6.7c-1.6,0-3.2,0.7-4.2,2l-41.2,51.6c-0.2,0.3-0.1,0.7,0.1,0.9c0.1,0.1,0.2,0.1,0.4,0.1
	h10.4C89,377.4,89.8,377,90.4,376.4 M120.2,338v24.2l-9.7-12.1L120.2,338z M354.7,376.4l-42-52.6c-0.5-0.6-1.3-1-2.1-1h-8
	c-0.6,0-1,0.4-1,1v52.6c0,0.6,0.4,1,1,1h8c0.8,0,1.6-0.4,2.1-1l14.5-18.1l14.4,18.1c0.5,0.6,1.3,1,2.1,1h10.5
	C354.8,377.4,355.1,376.8,354.7,376.4 M321.5,350.1l-9.7,12.1V338L321.5,350.1z M205.9,321.4c-15.9,0-28.7,12.8-28.7,28.7
	c0,15.9,12.8,28.7,28.7,28.7s28.7-12.8,28.7-28.7C234.6,334.2,221.8,321.4,205.9,321.4L205.9,321.4 M205.9,369
	c-10.4,0.3-19.1-8-19.4-18.4c-0.3-10.4,8-19.1,18.4-19.4c10.4-0.3,19.1,8,19.4,18.4c0,0.2,0,0.3,0,0.5
	C224.4,360.4,216.2,368.9,205.9,369C205.9,369,205.9,369,205.9,369 M388,323.8v37.3l-29.8-37.3c-0.5-0.6-1.3-1-2.1-1h-8
	c-0.6,0-1,0.4-1,1v25.3c0,0.6,0.2,1.2,0.6,1.7l8.5,10.7c0.2,0.3,0.6,0.3,0.9,0.1c0.2-0.1,0.3-0.3,0.2-0.5v-22l29.8,37.3
	c0.5,0.6,1.3,1,2.1,1h8c0.6,0,1-0.4,1-1v-52.6c0-0.6-0.4-1-1-1H389C388.4,322.8,388,323.2,388,323.8 M287.8,335.2v-11.4
	c0-0.6-0.4-1-1-1h-42c-0.6,0-1,0.4-1,1v52.6c0,0.6,0.4,1,1,1h8.2c0.6,0,1-0.4,1-1v-43.8h23.5l-15.9,19.9c-0.3,0.4-0.3,0.9,0,1.3
	l18.1,22.7c0.5,0.6,1.3,1,2.1,1h10.5c0.3,0,0.6-0.3,0.6-0.6c0-0.1,0-0.3-0.1-0.4L274.3,353l12.9-16.2
	C287.6,336.4,287.8,335.8,287.8,335.2 M143.8,377.4h24.3c0.8,0,1.6-0.4,2.1-1l6.1-7.7c0.2-0.3,0.1-0.7-0.1-0.9
	c-0.1-0.1-0.2-0.1-0.4-0.1H153v-43.8c0-0.6-0.4-1-1-1h-8.2c-0.6,0-1,0.4-1,1v52.6C142.9,377,143.3,377.4,143.8,377.4"/>
</svg>
